P2
  # Shows the word "FEEP"
24   7
65535
0  0  0  0  0  0  0  0  0  0  0  0  0  0  0  0  0  0  0  0  0  0  0  0
0  12234  12234  12234  12234  0  0  21894  21894  21894  21894  0  0
37812 37812 37812 37812  0  0 65535 65535 65535 65535  0
0  12234  0  0  0  0  0  21894  0  0  0  0  0 37812  0  0  0  0  0
65535  0  0 65535  0
0  12234  12234  12234  0  0  0  21894  21894  21894  0  0  0 37812
37812 37812  0  0  0 65535 65535 65535 65535  0
0  12234  0  0  0  0  0  21894  0  0  0  0  0 37812  0  0  0  0  0
65535  0  0  0  0
0  12234  0  0  0  0  0  21894  21894  21894  21894  0  0 37812 37812
37812 37812  0  0 65535  0  0  0  0
0  0  0  0  0  0  0  0  0  0  0  0  0  0  0  0  0  0  0  0  0  0  0  0